<svg viewBox="0 0 500 280" fill="none" xmlns="http://www.w3.org/2000/svg">
    <rect width="500" height="280" fill="#020617"/>
    <path d="M 230 140 C 190 120 120 115 45 125 C 35 127 30 145 40 152 C 115 165 190 155 230 145 Z" fill="#0f172a" stroke="#475569" stroke-width="1.5" />
    <path d="M 85 122 C 60 123 45 125 45 125 C 35 127 30 145 40 152 C 55 155 75 158 85 158 Z" fill="#ea580c" />
    <path d="M 270 140 C 310 120 380 115 455 125 C 465 127 470 145 460 152 C 385 165 310 155 270 145 Z" fill="#0f172a" stroke="#475569" stroke-width="1.5" />
    <path d="M 415 122 C 440 123 455 125 455 125 C 465 127 470 145 460 152 C 445 155 425 158 415 158 Z" fill="#ea580c" />
    <rect x="225" y="122" width="50" height="36" rx="8" fill="#334155" stroke="#94a3b8" stroke-width="2" />
    <circle cx="250" cy="140" r="7" fill="#020617" stroke="#38bdf8" stroke-width="2" />
    <text x="250" y="215" fill="#38bdf8" font-size="10" font-family="monospace" font-weight="bold" text-anchor="middle">16 x 5.5 INCH FOLDING CARBON FIBER</text>
    <text x="250" y="235" fill="#94a3b8" font-size="9" font-family="monospace" text-anchor="middle">WHISPER-QUIET ACOUSTIC PROFILE (-6.5 dB)</text>
  </svg>